<?xml version="1.0" encoding="UTF-8" standalone="no"?>
<!DOCTYPE svg PUBLIC "-//W3C//DTD SVG 1.1//EN"
 "http://www.w3.org/Graphics/SVG/1.1/DTD/svg11.dtd">
<!-- Generated by graphviz version 2.38.0 (20140413.2041)
 -->
<!-- Title: %3 Pages: 1 -->
<svg width="668pt" height="519pt"
 viewBox="0.00 0.00 668.30 518.77" xmlns="http://www.w3.org/2000/svg" xmlns:xlink="http://www.w3.org/1999/xlink">
<g id="graph0" class="graph" transform="scale(1 1) rotate(0) translate(4 514.773)">
<title>%3</title>
<polygon fill="white" stroke="none" points="-4,4 -4,-514.773 664.304,-514.773 664.304,4 -4,4"/>
<!-- CEN.Northeast -->
<g id="node1" class="node"><title>CEN.Northeast</title>
<polygon fill="#ccffcc" stroke="black" points="348,-488.165 241,-488.165 241,-452.165 348,-452.165 348,-488.165"/>
<text text-anchor="middle" x="294.5" y="-466.465" font-family="Helvetica,sans-Serif" font-size="14.00">CEN.Northeast</text>
</g>
<!-- TZ.Eastern -->
<g id="node7" class="node"><title>TZ.Eastern</title>
<polygon fill="#ffffcc" stroke="black" points="524.705,-339.71 524.705,-354.621 490.565,-365.165 442.284,-365.165 408.145,-354.621 408.145,-339.71 442.284,-329.165 490.565,-329.165 524.705,-339.71"/>
<text text-anchor="middle" x="466.425" y="-343.465" font-family="Helvetica,sans-Serif" font-size="14.00">TZ.Eastern</text>
</g>
<!-- CEN.Northeast&#45;&gt;TZ.Eastern -->
<g id="edge13" class="edge"><title>CEN.Northeast&#45;&gt;TZ.Eastern</title>
<path fill="none" stroke="#000000" d="M348.435,-456.194C360.355,-451.774 372.557,-446.163 383,-439.165 409.188,-421.617 432.479,-393.887 447.564,-373.454"/>
<polygon fill="#000000" stroke="#000000" points="450.508,-375.356 453.512,-365.195 444.828,-371.265 450.508,-375.356"/>
<text text-anchor="middle" x="374.5" y="-450.965" font-family="Times,serif" font-size="14.00">&lt;</text>
</g>
<!-- CEN.Midwest -->
<g id="node2" class="node"><title>CEN.Midwest</title>
<polygon fill="#ccffcc" stroke="black" points="344,-416.165 245,-416.165 245,-380.165 344,-380.165 344,-416.165"/>
<text text-anchor="middle" x="294.5" y="-394.465" font-family="Helvetica,sans-Serif" font-size="14.00">CEN.Midwest</text>
</g>
<!-- CEN.Midwest&#45;&gt;TZ.Eastern -->
<g id="edge18" class="edge"><title>CEN.Midwest&#45;&gt;TZ.Eastern</title>
<path fill="none" stroke="#000000" d="M335.361,-416.202C350.538,-420.649 367.825,-422.74 383,-417.165 407.08,-408.32 428.936,-388.975 444.083,-372.858"/>
<polygon fill="#000000" stroke="#000000" points="446.841,-375.027 450.96,-365.266 441.652,-370.328 446.841,-375.027"/>
<text text-anchor="middle" x="374.5" y="-423.965" font-family="Times,serif" font-size="14.00">&gt;&lt;</text>
</g>
<!-- TZ.Mountain -->
<g id="node8" class="node"><title>TZ.Mountain</title>
<polygon fill="#ffffcc" stroke="black" points="531.774,-186.71 531.774,-201.621 493.494,-212.165 439.356,-212.165 401.075,-201.621 401.075,-186.71 439.356,-176.165 493.494,-176.165 531.774,-186.71"/>
<text text-anchor="middle" x="466.425" y="-190.465" font-family="Helvetica,sans-Serif" font-size="14.00">TZ.Mountain</text>
</g>
<!-- CEN.Midwest&#45;&gt;TZ.Mountain -->
<g id="edge14" class="edge"><title>CEN.Midwest&#45;&gt;TZ.Mountain</title>
<path fill="none" stroke="#000000" d="M301.209,-380.164C310.891,-351.831 332.777,-296.246 366,-259.165 381.919,-241.398 403.753,-226.415 422.906,-215.329"/>
<polygon fill="#000000" stroke="#000000" points="424.759,-218.302 431.769,-210.359 421.335,-212.197 424.759,-218.302"/>
<text text-anchor="middle" x="374.5" y="-262.965" font-family="Times,serif" font-size="14.00">&gt;&lt;</text>
</g>
<!-- TZ.Pacific -->
<g id="node9" class="node"><title>TZ.Pacific</title>
<polygon fill="#ffffcc" stroke="black" points="520.763,-288.71 520.763,-303.621 488.932,-314.165 443.917,-314.165 412.086,-303.621 412.086,-288.71 443.917,-278.165 488.932,-278.165 520.763,-288.71"/>
<text text-anchor="middle" x="466.425" y="-292.465" font-family="Helvetica,sans-Serif" font-size="14.00">TZ.Pacific</text>
</g>
<!-- CEN.Midwest&#45;&gt;TZ.Pacific -->
<g id="edge17" class="edge"><title>CEN.Midwest&#45;&gt;TZ.Pacific</title>
<path fill="none" stroke="#000000" d="M344.121,-388.403C358.067,-383.628 372.36,-376.569 383,-366.165 398.697,-350.816 385.35,-335.561 401,-320.165 404.435,-316.786 408.39,-313.875 412.614,-311.37"/>
<polygon fill="#000000" stroke="#000000" points="414.278,-314.45 421.583,-306.776 411.087,-308.219 414.278,-314.45"/>
<text text-anchor="middle" x="374.5" y="-382.965" font-family="Times,serif" font-size="14.00">!</text>
</g>
<!-- CEN.South -->
<g id="node3" class="node"><title>CEN.South</title>
<polygon fill="#ccffcc" stroke="black" points="336.5,-212.165 252.5,-212.165 252.5,-176.165 336.5,-176.165 336.5,-212.165"/>
<text text-anchor="middle" x="294.5" y="-190.465" font-family="Helvetica,sans-Serif" font-size="14.00">CEN.South</text>
</g>
<!-- CEN.South&#45;&gt;TZ.Eastern -->
<g id="edge20" class="edge"><title>CEN.South&#45;&gt;TZ.Eastern</title>
<path fill="none" stroke="#000000" d="M301.434,-212.575C310.898,-239.061 331.897,-287.739 366,-315.165 376.916,-323.944 390.297,-330.339 403.662,-334.988"/>
<polygon fill="#000000" stroke="#000000" points="402.765,-338.376 413.356,-338.075 404.889,-331.706 402.765,-338.376"/>
<text text-anchor="middle" x="374.5" y="-329.965" font-family="Times,serif" font-size="14.00">&gt;&lt;</text>
</g>
<!-- CEN.South&#45;&gt;TZ.Mountain -->
<g id="edge12" class="edge"><title>CEN.South&#45;&gt;TZ.Mountain</title>
<path fill="none" stroke="#000000" d="M322.388,-176.123C335.046,-168.686 350.7,-160.936 366,-157.165 388.437,-151.635 412.764,-160.414 431.738,-170.803"/>
<polygon fill="#000000" stroke="#000000" points="430.191,-173.953 440.591,-175.978 433.723,-167.91 430.191,-173.953"/>
<text text-anchor="middle" x="374.5" y="-160.965" font-family="Times,serif" font-size="14.00">&gt;&lt;</text>
</g>
<!-- CEN.South&#45;&gt;TZ.Pacific -->
<g id="edge15" class="edge"><title>CEN.South&#45;&gt;TZ.Pacific</title>
<path fill="none" stroke="#000000" d="M336.91,-195.223C352.109,-197.012 369.007,-200.731 383,-208.165 397.469,-215.853 425.063,-247.044 444.321,-270.12"/>
<polygon fill="#000000" stroke="#000000" points="441.678,-272.417 450.749,-277.892 447.072,-267.955 441.678,-272.417"/>
<text text-anchor="middle" x="374.5" y="-211.965" font-family="Times,serif" font-size="14.00">!</text>
</g>
<!-- TZ.Central -->
<g id="node10" class="node"><title>TZ.Central</title>
<polygon fill="#ffffcc" stroke="black" points="522.484,-84.7095 522.484,-99.6212 489.645,-110.165 443.204,-110.165 410.365,-99.6212 410.365,-84.7095 443.204,-74.1654 489.645,-74.1654 522.484,-84.7095"/>
<text text-anchor="middle" x="466.425" y="-88.4654" font-family="Helvetica,sans-Serif" font-size="14.00">TZ.Central</text>
</g>
<!-- CEN.South&#45;&gt;TZ.Central -->
<g id="edge16" class="edge"><title>CEN.South&#45;&gt;TZ.Central</title>
<path fill="none" stroke="#000000" d="M315.14,-176.002C328.745,-164.01 347.645,-148.481 366,-137.165 382.874,-126.762 402.563,-117.346 419.946,-109.848"/>
<polygon fill="#000000" stroke="#000000" points="421.482,-112.999 429.334,-105.886 418.76,-106.55 421.482,-112.999"/>
<text text-anchor="middle" x="374.5" y="-140.965" font-family="Times,serif" font-size="14.00">&gt;&lt;</text>
</g>
<!-- CEN.USA -->
<g id="node4" class="node"><title>CEN.USA</title>
<polygon fill="#ccffcc" stroke="black" points="204,-416.165 127,-416.165 127,-380.165 204,-380.165 204,-416.165"/>
<text text-anchor="middle" x="165.5" y="-394.465" font-family="Helvetica,sans-Serif" font-size="14.00">CEN.USA</text>
</g>
<!-- CEN.USA&#45;&gt;CEN.Northeast -->
<g id="edge3" class="edge"><title>CEN.USA&#45;&gt;CEN.Northeast</title>
<path fill="none" stroke="#000000" d="M207.428,-421.369C224.933,-431.293 245.07,-442.709 261.463,-452.003"/>
<polygon fill="#000000" stroke="#000000" points="208.973,-418.221 198.547,-416.334 205.521,-424.311 208.973,-418.221"/>
</g>
<!-- CEN.USA&#45;&gt;CEN.Midwest -->
<g id="edge1" class="edge"><title>CEN.USA&#45;&gt;CEN.Midwest</title>
<path fill="none" stroke="#000000" d="M214.387,-398.165C224.336,-398.165 234.831,-398.165 244.808,-398.165"/>
<polygon fill="#000000" stroke="#000000" points="214.26,-394.665 204.26,-398.165 214.26,-401.665 214.26,-394.665"/>
</g>
<!-- CEN.USA&#45;&gt;CEN.South -->
<g id="edge4" class="edge"><title>CEN.USA&#45;&gt;CEN.South</title>
<path fill="none" stroke="#000000" d="M183.144,-371.43C209.418,-329.226 259.823,-248.261 282.255,-212.228"/>
<polygon fill="#000000" stroke="#000000" points="180.084,-369.723 177.77,-380.062 186.027,-373.422 180.084,-369.723"/>
</g>
<!-- CEN.West -->
<g id="node5" class="node"><title>CEN.West</title>
<polygon fill="#ccffcc" stroke="black" points="334.5,-115.165 254.5,-115.165 254.5,-79.1654 334.5,-79.1654 334.5,-115.165"/>
<text text-anchor="middle" x="294.5" y="-93.4654" font-family="Helvetica,sans-Serif" font-size="14.00">CEN.West</text>
</g>
<!-- CEN.USA&#45;&gt;CEN.West -->
<g id="edge2" class="edge"><title>CEN.USA&#45;&gt;CEN.West</title>
<path fill="none" stroke="#000000" d="M172.367,-370.133C182.404,-325.454 205.307,-236.105 241,-167.165 250.848,-148.144 265.774,-128.841 277.197,-115.336"/>
<polygon fill="#000000" stroke="#000000" points="168.93,-369.466 170.201,-379.984 175.767,-370.969 168.93,-369.466"/>
</g>
<!-- TZ.USA -->
<g id="node6" class="node"><title>TZ.USA</title>
<polygon fill="#ffffcc" stroke="black" points="660.532,-288.71 660.532,-303.621 633.612,-314.165 595.541,-314.165 568.621,-303.621 568.621,-288.71 595.541,-278.165 633.612,-278.165 660.532,-288.71"/>
<text text-anchor="middle" x="614.577" y="-292.465" font-family="Helvetica,sans-Serif" font-size="14.00">TZ.USA</text>
</g>
<!-- CEN.USA&#45;&gt;TZ.USA -->
<g id="edge19" class="edge"><title>CEN.USA&#45;&gt;TZ.USA</title>
<path fill="none" stroke="#000000" d="M173.855,-416.175C184.615,-439.808 207.125,-480.262 241,-497.165 283.552,-518.399 302.496,-510.983 348,-497.165 453.914,-465.003 549.927,-368.553 591.625,-321.941"/>
<polygon fill="#000000" stroke="#000000" points="594.312,-324.186 598.308,-314.374 589.065,-319.553 594.312,-324.186"/>
<text text-anchor="middle" x="374.5" y="-493.965" font-family="Times,serif" font-size="14.00">==</text>
</g>
<!-- CEN.West&#45;&gt;TZ.Eastern -->
<g id="edge9" class="edge"><title>CEN.West&#45;&gt;TZ.Eastern</title>
<path fill="none" stroke="#000000" d="M312.907,-115.218C324.703,-128.517 339.619,-147.619 348,-167.165 367.005,-211.486 346.677,-229.982 366,-274.165 370.951,-285.487 375.791,-286.13 383,-296.165 391.414,-307.879 389.693,-314.213 401,-323.165 404.723,-326.113 408.844,-328.724 413.15,-331.032"/>
<polygon fill="#000000" stroke="#000000" points="411.65,-334.194 422.181,-335.354 414.672,-327.88 411.65,-334.194"/>
<text text-anchor="middle" x="374.5" y="-299.965" font-family="Times,serif" font-size="14.00">!</text>
</g>
<!-- CEN.West&#45;&gt;TZ.Mountain -->
<g id="edge10" class="edge"><title>CEN.West&#45;&gt;TZ.Mountain</title>
<path fill="none" stroke="#000000" d="M312.073,-78.9794C330.532,-60.9491 360.704,-38.2749 383,-55.1654 406.553,-73.0078 387.044,-93.1211 401,-119.165 410.692,-137.251 425.38,-154.8 438.285,-168.37"/>
<polygon fill="#000000" stroke="#000000" points="436.131,-171.173 445.626,-175.873 441.134,-166.278 436.131,-171.173"/>
<text text-anchor="middle" x="374.5" y="-58.9654" font-family="Times,serif" font-size="14.00">&gt;&lt;</text>
</g>
<!-- CEN.West&#45;&gt;TZ.Central -->
<g id="edge11" class="edge"><title>CEN.West&#45;&gt;TZ.Central</title>
<path fill="none" stroke="#000000" d="M303.028,-79.0944C313.449,-56.7488 334.609,-19.76 366,-4.16537 401.7,13.57 434.537,-32.8106 452.089,-64.7784"/>
<polygon fill="#000000" stroke="#000000" points="449.062,-66.5415 456.828,-73.7484 455.251,-63.2715 449.062,-66.5415"/>
<text text-anchor="middle" x="374.5" y="-7.96537" font-family="Times,serif" font-size="14.00">!</text>
</g>
<!-- TZ.Eastern&#45;&gt;TZ.USA -->
<g id="edge6" class="edge"><title>TZ.Eastern&#45;&gt;TZ.USA</title>
<path fill="none" stroke="#000000" d="M505.824,-333.766C525.448,-326.918 549.416,-318.554 569.759,-311.456"/>
<polygon fill="#000000" stroke="#000000" points="571.132,-314.684 579.42,-308.084 568.825,-308.075 571.132,-314.684"/>
</g>
<!-- TZ.Mountain&#45;&gt;TZ.USA -->
<g id="edge7" class="edge"><title>TZ.Mountain&#45;&gt;TZ.USA</title>
<path fill="none" stroke="#000000" d="M493.217,-212.166C518.063,-229.506 555.688,-255.765 582.245,-274.299"/>
<polygon fill="#000000" stroke="#000000" points="580.245,-277.171 590.449,-280.024 584.251,-271.431 580.245,-277.171"/>
</g>
<!-- TZ.Pacific&#45;&gt;TZ.USA -->
<g id="edge5" class="edge"><title>TZ.Pacific&#45;&gt;TZ.USA</title>
<path fill="none" stroke="#000000" d="M520.602,-296.165C532.845,-296.165 545.894,-296.165 558.227,-296.165"/>
<polygon fill="#000000" stroke="#000000" points="558.384,-299.665 568.384,-296.165 558.384,-292.665 558.384,-299.665"/>
</g>
<!-- TZ.Central&#45;&gt;TZ.USA -->
<g id="edge8" class="edge"><title>TZ.Central&#45;&gt;TZ.USA</title>
<path fill="none" stroke="#000000" d="M484.353,-110.347C497.823,-125.165 516.837,-146.884 531.85,-167.165 556.965,-201.096 582.455,-242.723 598.137,-269.346"/>
<polygon fill="#000000" stroke="#000000" points="595.188,-271.236 603.258,-278.1 601.23,-267.701 595.188,-271.236"/>
</g>
<!-- Legend -->
<g id="node11" class="node"><title>Legend</title>
<polygon fill="white" stroke="black" points="109,-485.665 0,-485.665 0,-310.665 109,-310.665 109,-485.665"/>
<polygon fill="none" stroke="black" points="0.5,-460.165 0.5,-485.165 109.5,-485.165 109.5,-460.165 0.5,-460.165"/>
<text text-anchor="start" x="32" y="-468.965" font-family="Arial Black" font-size="14.00"> Nodes</text>
<polygon fill="#ccffcc" stroke="none" points="0.5,-435.165 0.5,-460.165 83.5,-460.165 83.5,-435.165 0.5,-435.165"/>
<polygon fill="none" stroke="black" points="0.5,-435.165 0.5,-460.165 83.5,-460.165 83.5,-435.165 0.5,-435.165"/>
<text text-anchor="start" x="27.5" y="-443.965" font-family="Helvetica,sans-Serif" font-size="14.00">CEN</text>
<polygon fill="none" stroke="black" points="83.5,-435.165 83.5,-460.165 109.5,-460.165 109.5,-435.165 83.5,-435.165"/>
<text text-anchor="start" x="92.5" y="-443.965" font-family="Helvetica,sans-Serif" font-size="14.00">5</text>
<polygon fill="#ffffcc" stroke="none" points="0.5,-410.165 0.5,-435.165 83.5,-435.165 83.5,-410.165 0.5,-410.165"/>
<polygon fill="none" stroke="black" points="0.5,-410.165 0.5,-435.165 83.5,-435.165 83.5,-410.165 0.5,-410.165"/>
<text text-anchor="start" x="33.5" y="-418.965" font-family="Helvetica,sans-Serif" font-size="14.00">TZ</text>
<polygon fill="none" stroke="black" points="83.5,-410.165 83.5,-435.165 109.5,-435.165 109.5,-410.165 83.5,-410.165"/>
<text text-anchor="start" x="92.5" y="-418.965" font-family="Helvetica,sans-Serif" font-size="14.00">5</text>
<polygon fill="none" stroke="black" points="0.5,-385.165 0.5,-410.165 109.5,-410.165 109.5,-385.165 0.5,-385.165"/>
<text text-anchor="start" x="30.5" y="-393.965" font-family="Arial Black" font-size="14.00"> Edges </text>
<polygon fill="none" stroke="black" points="0.5,-360.165 0.5,-385.165 83.5,-385.165 83.5,-360.165 0.5,-360.165"/>
<text text-anchor="start" x="8.5" y="-368.965" font-family="Helvetica,sans-Serif" font-size="14.00" fill="#000000">is_a (CEN)</text>
<polygon fill="none" stroke="black" points="83.5,-360.165 83.5,-385.165 109.5,-385.165 109.5,-360.165 83.5,-360.165"/>
<text text-anchor="start" x="92.5" y="-368.965" font-family="Helvetica,sans-Serif" font-size="14.00">4</text>
<polygon fill="none" stroke="black" points="0.5,-335.165 0.5,-360.165 83.5,-360.165 83.5,-335.165 0.5,-335.165"/>
<text text-anchor="start" x="14.5" y="-343.965" font-family="Helvetica,sans-Serif" font-size="14.00" fill="#000000">is_a (TZ)</text>
<polygon fill="none" stroke="black" points="83.5,-335.165 83.5,-360.165 109.5,-360.165 109.5,-335.165 83.5,-335.165"/>
<text text-anchor="start" x="92.5" y="-343.965" font-family="Helvetica,sans-Serif" font-size="14.00">4</text>
<polygon fill="none" stroke="black" points="0.5,-310.165 0.5,-335.165 83.5,-335.165 83.5,-310.165 0.5,-310.165"/>
<text text-anchor="start" x="5.5" y="-318.965" font-family="Helvetica,sans-Serif" font-size="14.00" fill="#aa00ff">articulations</text>
<polygon fill="none" stroke="black" points="83.5,-310.165 83.5,-335.165 109.5,-335.165 109.5,-310.165 83.5,-310.165"/>
<text text-anchor="start" x="88.5" y="-318.965" font-family="Helvetica,sans-Serif" font-size="14.00">12</text>
</g>
</g>
</svg>
