<?xml version="1.0" encoding="UTF-8" standalone="no"?>
<!DOCTYPE svg PUBLIC "-//W3C//DTD SVG 1.1//EN"
 "http://www.w3.org/Graphics/SVG/1.1/DTD/svg11.dtd">
<!-- Generated by graphviz version 2.38.0 (20140413.2041)
 -->
<!-- Title: %3 Pages: 1 -->
<svg width="676pt" height="309pt"
 viewBox="0.00 0.00 676.40 309.00" xmlns="http://www.w3.org/2000/svg" xmlns:xlink="http://www.w3.org/1999/xlink">
<g id="graph0" class="graph" transform="scale(1 1) rotate(0) translate(4 305)">
<title>%3</title>
<polygon fill="white" stroke="none" points="-4,4 -4,-305 672.397,-305 672.397,4 -4,4"/>
<!-- CEN.Midwest -->
<g id="node1" class="node"><title>CEN.Midwest</title>
<polygon fill="#ccffcc" stroke="black" points="400.78,-232 305.78,-232 305.78,-196 400.78,-196 400.78,-232"/>
<text text-anchor="middle" x="353.28" y="-210.3" font-family="Times,serif" font-size="14.00">CEN.Midwest</text>
</g>
<!-- CEN.USA\nTZ.USA -->
<g id="node5" class="node"><title>CEN.USA\nTZ.USA</title>
<ellipse fill="#ffffff" stroke="black" cx="52.3259" cy="-168" rx="52.1524" ry="52.1524"/>
<text text-anchor="middle" x="52.3259" y="-171.8" font-family="Times,serif" font-size="14.00">CEN.USA</text>
<text text-anchor="middle" x="52.3259" y="-156.8" font-family="Times,serif" font-size="14.00">TZ.USA</text>
</g>
<!-- CEN.Midwest&#45;&gt;CEN.USA\nTZ.USA -->
<g id="edge2" class="edge"><title>CEN.Midwest&#45;&gt;CEN.USA\nTZ.USA</title>
<path fill="none" stroke="#000000" stroke-dasharray="1,5" d="M305.574,-222.158C262.092,-228.058 195.874,-232.69 140.652,-218 128.263,-214.704 115.801,-209.189 104.326,-202.999"/>
<polygon fill="#000000" stroke="#000000" points="105.781,-199.801 95.3551,-197.918 102.332,-205.892 105.781,-199.801"/>
</g>
<!-- TZ.Eastern -->
<g id="node6" class="node"><title>TZ.Eastern</title>
<polygon fill="#ffffcc" stroke="black" points="258.305,-275.544 258.305,-290.456 226.474,-301 181.458,-301 149.628,-290.456 149.628,-275.544 181.458,-265 226.474,-265 258.305,-275.544"/>
<text text-anchor="middle" x="203.966" y="-279.3" font-family="Times,serif" font-size="14.00">TZ.Eastern</text>
</g>
<!-- CEN.Midwest&#45;&gt;TZ.Eastern -->
<g id="edge13" class="edge"><title>CEN.Midwest&#45;&gt;TZ.Eastern</title>
<path fill="none" stroke="#000000" stroke-dasharray="1,5" d="M313.575,-232.129C292.634,-241.937 266.787,-254.044 245.561,-263.986"/>
<polygon fill="#000000" stroke="#000000" points="244.044,-260.832 236.473,-268.243 247.013,-267.171 244.044,-260.832"/>
</g>
<!-- TZ.Central -->
<g id="node8" class="node"><title>TZ.Central</title>
<polygon fill="#ffffcc" stroke="black" points="258.305,-183.544 258.305,-198.456 226.474,-209 181.458,-209 149.628,-198.456 149.628,-183.544 181.458,-173 226.474,-173 258.305,-183.544"/>
<text text-anchor="middle" x="203.966" y="-187.3" font-family="Times,serif" font-size="14.00">TZ.Central</text>
</g>
<!-- CEN.Midwest&#45;&gt;TZ.Central -->
<g id="edge3" class="edge"><title>CEN.Midwest&#45;&gt;TZ.Central</title>
<path fill="none" stroke="#000000" stroke-dasharray="1,5" d="M305.669,-206.723C293.243,-204.782 279.623,-202.656 266.528,-200.612"/>
<polygon fill="#000000" stroke="#000000" points="267.065,-197.153 256.645,-199.069 265.985,-204.069 267.065,-197.153"/>
</g>
<!-- TZ.Mountain -->
<g id="node9" class="node"><title>TZ.Mountain</title>
<polygon fill="#ffffcc" stroke="black" points="267.095,-91.5442 267.095,-106.456 230.115,-117 177.817,-117 140.837,-106.456 140.837,-91.5442 177.817,-81 230.115,-81 267.095,-91.5442"/>
<text text-anchor="middle" x="203.966" y="-95.3" font-family="Times,serif" font-size="14.00">TZ.Mountain</text>
</g>
<!-- CEN.Midwest&#45;&gt;TZ.Mountain -->
<g id="edge8" class="edge"><title>CEN.Midwest&#45;&gt;TZ.Mountain</title>
<path fill="none" stroke="#000000" stroke-dasharray="1,5" d="M326.374,-195.954C318.854,-190.593 310.678,-184.643 303.28,-179 279.704,-161.016 253.709,-139.799 234.372,-123.736"/>
<polygon fill="#000000" stroke="#000000" points="236.442,-120.905 226.519,-117.192 231.961,-126.282 236.442,-120.905"/>
</g>
<!-- CEN.South -->
<g id="node2" class="node"><title>CEN.South</title>
<polygon fill="#ccffcc" stroke="black" points="392.78,-170 313.78,-170 313.78,-134 392.78,-134 392.78,-170"/>
<text text-anchor="middle" x="353.28" y="-148.3" font-family="Times,serif" font-size="14.00">CEN.South</text>
</g>
<!-- CEN.South&#45;&gt;CEN.USA\nTZ.USA -->
<g id="edge1" class="edge"><title>CEN.South&#45;&gt;CEN.USA\nTZ.USA</title>
<path fill="none" stroke="#000000" stroke-dasharray="1,5" d="M313.504,-154.075C263.099,-156.773 174.487,-161.515 114.855,-164.707"/>
<polygon fill="#000000" stroke="#000000" points="114.609,-161.215 104.81,-165.245 114.983,-168.205 114.609,-161.215"/>
</g>
<!-- CEN.South&#45;&gt;TZ.Eastern -->
<g id="edge14" class="edge"><title>CEN.South&#45;&gt;TZ.Eastern</title>
<path fill="none" stroke="#000000" stroke-dasharray="1,5" d="M325.276,-170.17C317.967,-175.386 310.175,-181.23 303.28,-187 276.515,-209.402 248.23,-237.554 228.906,-257.567"/>
<polygon fill="#000000" stroke="#000000" points="226.356,-255.17 221.96,-264.81 231.408,-260.015 226.356,-255.17"/>
</g>
<!-- CEN.South&#45;&gt;TZ.Central -->
<g id="edge11" class="edge"><title>CEN.South&#45;&gt;TZ.Central</title>
<path fill="none" stroke="#000000" stroke-dasharray="1,5" d="M313.575,-162.247C296.305,-166.819 275.697,-172.275 257.098,-177.199"/>
<polygon fill="#000000" stroke="#000000" points="256.066,-173.851 247.295,-179.794 257.857,-180.618 256.066,-173.851"/>
</g>
<!-- CEN.South&#45;&gt;TZ.Mountain -->
<g id="edge6" class="edge"><title>CEN.South&#45;&gt;TZ.Mountain</title>
<path fill="none" stroke="#000000" stroke-dasharray="1,5" d="M313.575,-138.075C295.271,-131.489 273.217,-123.555 253.779,-116.561"/>
<polygon fill="#000000" stroke="#000000" points="254.775,-113.2 244.181,-113.108 252.405,-119.787 254.775,-113.2"/>
</g>
<!-- CEN.Northeast -->
<g id="node3" class="node"><title>CEN.Northeast</title>
<polygon fill="#ccffcc" stroke="black" points="403.28,-301 303.28,-301 303.28,-265 403.28,-265 403.28,-301"/>
<text text-anchor="middle" x="353.28" y="-279.3" font-family="Times,serif" font-size="14.00">CEN.Northeast</text>
</g>
<!-- CEN.Northeast&#45;&gt;TZ.Eastern -->
<g id="edge10" class="edge"><title>CEN.Northeast&#45;&gt;TZ.Eastern</title>
<path fill="none" stroke="#000000" stroke-dasharray="1,5" d="M303.227,-283C292.092,-283 280.11,-283 268.473,-283"/>
<polygon fill="#000000" stroke="#000000" points="268.365,-279.5 258.365,-283 268.365,-286.5 268.365,-279.5"/>
</g>
<!-- CEN.West -->
<g id="node4" class="node"><title>CEN.West</title>
<polygon fill="#ccffcc" stroke="black" points="391.28,-93 315.28,-93 315.28,-57 391.28,-57 391.28,-93"/>
<text text-anchor="middle" x="353.28" y="-71.3" font-family="Times,serif" font-size="14.00">CEN.West</text>
</g>
<!-- CEN.West&#45;&gt;CEN.USA\nTZ.USA -->
<g id="edge12" class="edge"><title>CEN.West&#45;&gt;CEN.USA\nTZ.USA</title>
<path fill="none" stroke="#000000" stroke-dasharray="1,5" d="M315.246,-65.4947C271.483,-56.238 197.446,-46.8864 140.652,-72 119.477,-81.3633 101.231,-98.6782 86.9739,-116.052"/>
<polygon fill="#000000" stroke="#000000" points="84.1441,-113.989 80.7081,-124.011 89.6441,-118.319 84.1441,-113.989"/>
</g>
<!-- CEN.West&#45;&gt;TZ.Mountain -->
<g id="edge7" class="edge"><title>CEN.West&#45;&gt;TZ.Mountain</title>
<path fill="none" stroke="#000000" stroke-dasharray="1,5" d="M315.107,-81.0562C301.879,-83.2112 286.552,-85.7083 271.612,-88.1422"/>
<polygon fill="#000000" stroke="#000000" points="270.669,-84.7496 261.362,-89.8121 271.795,-91.6585 270.669,-84.7496"/>
</g>
<!-- TZ.Eastern&#45;&gt;CEN.USA\nTZ.USA -->
<g id="edge5" class="edge"><title>TZ.Eastern&#45;&gt;CEN.USA\nTZ.USA</title>
<path fill="none" stroke="#000000" stroke-dasharray="1,5" d="M170.566,-268.562C160.621,-263.559 149.875,-257.546 140.652,-251 125.108,-239.969 109.566,-226.274 95.9932,-213.21"/>
<polygon fill="#000000" stroke="#000000" points="98.2619,-210.533 88.6679,-206.038 93.3648,-215.535 98.2619,-210.533"/>
</g>
<!-- TZ.Pacific -->
<g id="node7" class="node"><title>TZ.Pacific</title>
<polygon fill="#ffffcc" stroke="black" points="543.456,-67.5442 543.456,-82.4558 512.926,-93 469.751,-93 439.222,-82.4558 439.222,-67.5442 469.751,-57 512.926,-57 543.456,-67.5442"/>
<text text-anchor="middle" x="491.339" y="-71.3" font-family="Times,serif" font-size="14.00">TZ.Pacific</text>
</g>
<!-- TZ.Pacific&#45;&gt;CEN.West -->
<g id="edge4" class="edge"><title>TZ.Pacific&#45;&gt;CEN.West</title>
<path fill="none" stroke="#000000" stroke-dasharray="1,5" d="M438.901,-75C426.678,-75 413.695,-75 401.663,-75"/>
<polygon fill="#000000" stroke="#000000" points="401.378,-71.5001 391.378,-75 401.378,-78.5001 401.378,-71.5001"/>
</g>
<!-- TZ.Central&#45;&gt;CEN.USA\nTZ.USA -->
<g id="edge9" class="edge"><title>TZ.Central&#45;&gt;CEN.USA\nTZ.USA</title>
<path fill="none" stroke="#000000" stroke-dasharray="1,5" d="M151.049,-183.02C139.179,-181.196 126.457,-179.24 114.247,-177.364"/>
<polygon fill="#000000" stroke="#000000" points="114.556,-173.87 104.141,-175.81 113.493,-180.789 114.556,-173.87"/>
</g>
<!-- TZ.Mountain&#45;&gt;CEN.USA\nTZ.USA -->
<g id="edge15" class="edge"><title>TZ.Mountain&#45;&gt;CEN.USA\nTZ.USA</title>
<path fill="none" stroke="#000000" stroke-dasharray="1,5" d="M169.01,-114.657C151.442,-122.758 129.538,-132.858 109.53,-142.084"/>
<polygon fill="#000000" stroke="#000000" points="107.807,-139.024 100.192,-146.39 110.739,-145.381 107.807,-139.024"/>
</g>
<!-- Legend -->
<g id="node10" class="node"><title>Legend</title>
<polygon fill="white" stroke="black" points="668.397,-150 579.397,-150 579.397,-0 668.397,-0 668.397,-150"/>
<polygon fill="none" stroke="black" points="579.897,-125 579.897,-150 668.897,-150 668.897,-125 579.897,-125"/>
<text text-anchor="start" x="601.397" y="-133.8" font-family="Arial Black" font-size="14.00"> Nodes</text>
<polygon fill="#ccffcc" stroke="none" points="579.897,-100 579.897,-125 644.897,-125 644.897,-100 579.897,-100"/>
<polygon fill="none" stroke="black" points="579.897,-100 579.897,-125 644.897,-125 644.897,-100 579.897,-100"/>
<text text-anchor="start" x="598.397" y="-108.8" font-family="Times,serif" font-size="14.00">CEN</text>
<polygon fill="none" stroke="black" points="644.897,-100 644.897,-125 668.897,-125 668.897,-100 644.897,-100"/>
<text text-anchor="start" x="653.397" y="-108.8" font-family="Times,serif" font-size="14.00">4</text>
<polygon fill="#ffffff" stroke="none" points="579.897,-75 579.897,-100 644.897,-100 644.897,-75 579.897,-75"/>
<polygon fill="none" stroke="black" points="579.897,-75 579.897,-100 644.897,-100 644.897,-75 579.897,-75"/>
<text text-anchor="start" x="584.897" y="-83.8" font-family="Times,serif" font-size="14.00">congruent</text>
<polygon fill="none" stroke="black" points="644.897,-75 644.897,-100 668.897,-100 668.897,-75 644.897,-75"/>
<text text-anchor="start" x="653.397" y="-83.8" font-family="Times,serif" font-size="14.00">1</text>
<polygon fill="#ffffcc" stroke="none" points="579.897,-50 579.897,-75 644.897,-75 644.897,-50 579.897,-50"/>
<polygon fill="none" stroke="black" points="579.897,-50 579.897,-75 644.897,-75 644.897,-50 579.897,-50"/>
<text text-anchor="start" x="603.897" y="-58.8" font-family="Times,serif" font-size="14.00">TZ</text>
<polygon fill="none" stroke="black" points="644.897,-50 644.897,-75 668.897,-75 668.897,-50 644.897,-50"/>
<text text-anchor="start" x="653.397" y="-58.8" font-family="Times,serif" font-size="14.00">4</text>
<polygon fill="none" stroke="black" points="579.897,-25 579.897,-50 668.897,-50 668.897,-25 579.897,-25"/>
<text text-anchor="start" x="599.897" y="-33.8" font-family="Arial Black" font-size="14.00"> Edges </text>
<polygon fill="none" stroke="black" points="579.897,1.42109e-14 579.897,-25 644.897,-25 644.897,1.42109e-14 579.897,1.42109e-14"/>
<text text-anchor="start" x="593.397" y="-8.8" font-family="Times,serif" font-size="14.00" fill="#000000">default</text>
<polygon fill="none" stroke="black" points="644.897,1.42109e-14 644.897,-25 668.897,-25 668.897,1.42109e-14 644.897,1.42109e-14"/>
<text text-anchor="start" x="649.897" y="-8.8" font-family="Times,serif" font-size="14.00">15</text>
</g>
</g>
</svg>
